solid Exported from Blender-3.6.9
facet normal -1.000000 0.000000 0.000000
outer loop
vertex -0.200000 0.173099 -0.200000
vertex -0.200000 0.183401 0.200000
vertex -0.200000 0.500000 0.200000
endloop
endfacet
facet normal -1.000000 0.000000 0.000000
outer loop
vertex -0.200000 0.173099 -0.200000
vertex -0.200000 0.500000 0.200000
vertex -0.200000 0.500000 -0.200000
endloop
endfacet
facet normal 1.000000 0.000000 0.000000
outer loop
vertex 0.200000 -0.231663 -0.200000
vertex 0.200000 -0.225990 0.200000
vertex 0.200000 -0.500000 0.200000
endloop
endfacet
facet normal 1.000000 0.000000 0.000000
outer loop
vertex 0.200000 -0.231663 -0.200000
vertex 0.200000 -0.500000 0.200000
vertex 0.200000 -0.500000 -0.200000
endloop
endfacet
facet normal 0.000000 -1.000000 0.000000
outer loop
vertex 0.200000 -0.500000 -0.200000
vertex 0.200000 -0.500000 0.200000
vertex -0.200000 -0.500000 0.200000
endloop
endfacet
facet normal 0.000000 -1.000000 0.000000
outer loop
vertex 0.200000 -0.500000 -0.200000
vertex -0.200000 -0.500000 0.200000
vertex -0.200000 -0.500000 -0.200000
endloop
endfacet
facet normal 0.000000 0.000000 -1.000000
outer loop
vertex -0.200000 -0.500000 -0.200000
vertex -0.200000 -0.006125 -0.200000
vertex 0.006576 -0.122602 -0.200000
endloop
endfacet
facet normal 0.000000 0.000000 -1.000000
outer loop
vertex 0.006576 -0.122602 -0.200000
vertex 0.200000 -0.231663 -0.200000
vertex 0.200000 -0.500000 -0.200000
endloop
endfacet
facet normal 0.000000 0.000000 -1.000000
outer loop
vertex 0.006576 -0.122602 -0.200000
vertex 0.200000 -0.500000 -0.200000
vertex -0.200000 -0.500000 -0.200000
endloop
endfacet
facet normal 0.000000 0.000000 1.000000
outer loop
vertex 0.200000 -0.500000 0.200000
vertex 0.200000 -0.225990 0.200000
vertex 0.152759 -0.199353 0.200000
endloop
endfacet
facet normal 0.000000 0.000000 1.000000
outer loop
vertex 0.152759 -0.199353 0.200000
vertex -0.200000 -0.000452 0.200000
vertex -0.200000 -0.500000 0.200000
endloop
endfacet
facet normal 0.000000 0.000000 1.000000
outer loop
vertex 0.152759 -0.199353 0.200000
vertex -0.200000 -0.500000 0.200000
vertex 0.200000 -0.500000 0.200000
endloop
endfacet
facet normal 1.000000 0.000000 0.000000
outer loop
vertex 0.200000 0.500000 -0.200000
vertex 0.200000 0.500000 0.200000
vertex 0.200000 0.403799 0.200000
endloop
endfacet
facet normal 1.000000 0.000000 0.000000
outer loop
vertex 0.200000 0.500000 -0.200000
vertex 0.200000 0.403799 0.200000
vertex 0.200000 0.393496 -0.200000
endloop
endfacet
facet normal 0.000000 0.000000 1.000000
outer loop
vertex 0.200000 0.403799 0.200000
vertex 0.200000 0.500000 0.200000
vertex -0.200000 0.500000 0.200000
endloop
endfacet
facet normal 0.000000 0.000000 1.000000
outer loop
vertex -0.200000 0.500000 0.200000
vertex -0.200000 0.183401 0.200000
vertex -0.100558 0.238193 0.200000
endloop
endfacet
facet normal 0.000000 0.000000 1.000000
outer loop
vertex -0.200000 0.500000 0.200000
vertex -0.100558 0.238193 0.200000
vertex 0.200000 0.403799 0.200000
endloop
endfacet
facet normal -1.000000 0.000000 0.000000
outer loop
vertex -0.200000 -0.006125 -0.200000
vertex -0.200000 -0.000452 0.200000
vertex -0.200000 0.183401 0.200000
endloop
endfacet
facet normal -1.000000 0.000000 0.000000
outer loop
vertex -0.200000 -0.006125 -0.200000
vertex -0.200000 0.183401 0.200000
vertex -0.200000 0.173099 -0.200000
endloop
endfacet
facet normal 0.000000 0.000000 -1.000000
outer loop
vertex -0.200000 0.173099 -0.200000
vertex -0.200000 0.500000 -0.200000
vertex 0.200000 0.500000 -0.200000
endloop
endfacet
facet normal -0.000000 0.000000 -1.000000
outer loop
vertex 0.200000 0.500000 -0.200000
vertex 0.200000 0.393496 -0.200000
vertex -0.095136 0.230878 -0.200000
endloop
endfacet
facet normal 0.000001 0.000000 -1.000000
outer loop
vertex 0.200000 0.500000 -0.200000
vertex -0.095136 0.230878 -0.200000
vertex -0.200000 0.173099 -0.200000
endloop
endfacet
facet normal -0.482464 0.875625 -0.022553
outer loop
vertex -0.095136 0.230878 -0.200000
vertex -0.100558 0.238193 0.200000
vertex 0.200000 0.403799 0.200000
endloop
endfacet
facet normal -0.482464 0.875625 -0.022552
outer loop
vertex -0.095136 0.230878 -0.200000
vertex 0.200000 0.403799 0.200000
vertex 0.200000 0.393496 -0.200000
endloop
endfacet
facet normal 1.000000 0.000000 0.000000
outer loop
vertex 0.200000 0.393496 -0.200000
vertex 0.200000 0.403799 0.200000
vertex 0.200000 -0.225990 0.200000
endloop
endfacet
facet normal 1.000000 0.000000 0.000000
outer loop
vertex 0.200000 0.393496 -0.200000
vertex 0.200000 -0.225990 0.200000
vertex 0.200000 -0.231663 -0.200000
endloop
endfacet
facet normal 0.000000 0.000000 1.000000
outer loop
vertex 0.200000 -0.225990 0.200000
vertex 0.200000 0.403799 0.200000
vertex -0.100558 0.238193 0.200000
endloop
endfacet
facet normal 0.000000 0.000000 1.000000
outer loop
vertex -0.100558 0.238193 0.200000
vertex -0.200000 0.183401 0.200000
vertex -0.200000 -0.000452 0.200000
endloop
endfacet
facet normal 0.707107 0.000000 0.707107
outer loop
vertex -0.200000 -0.000452 0.200000
vertex 0.152759 -0.199353 0.200000
vertex 0.200000 -0.225990 0.200000
endloop
endfacet
facet normal 0.000000 0.000000 1.000000
outer loop
vertex -0.100558 0.238193 0.200000
vertex -0.200000 -0.000452 0.200000
vertex 0.200000 -0.225990 0.200000
endloop
endfacet
facet normal 0.000000 0.000000 -1.000000
outer loop
vertex -0.200000 -0.006125 -0.200000
vertex -0.200000 0.173099 -0.200000
vertex -0.095136 0.230878 -0.200000
endloop
endfacet
facet normal 0.000000 0.000000 -1.000000
outer loop
vertex -0.095136 0.230878 -0.200000
vertex 0.200000 0.393496 -0.200000
vertex 0.200000 -0.231663 -0.200000
endloop
endfacet
facet normal 0.000000 0.000000 -1.000000
outer loop
vertex 0.006576 -0.122602 -0.200000
vertex -0.200000 -0.006125 -0.200000
vertex -0.095136 0.230878 -0.200000
endloop
endfacet
facet normal -0.000000 0.000000 -1.000000
outer loop
vertex -0.095136 0.230878 -0.200000
vertex 0.200000 -0.231663 -0.200000
vertex 0.006576 -0.122602 -0.200000
endloop
endfacet
facet normal -1.000000 0.000000 0.000000
outer loop
vertex -0.200000 -0.500000 -0.200000
vertex -0.200000 -0.500000 0.200000
vertex -0.200000 -0.000452 0.200000
endloop
endfacet
facet normal -1.000000 0.000000 0.000000
outer loop
vertex -0.200000 -0.500000 -0.200000
vertex -0.200000 -0.000452 0.200000
vertex -0.200000 -0.006125 -0.200000
endloop
endfacet
facet normal 0.491113 0.871008 -0.012353
outer loop
vertex -0.200000 -0.006125 -0.200000
vertex -0.200000 -0.000452 0.200000
vertex 0.152759 -0.199353 0.200000
endloop
endfacet
facet normal 0.491113 0.871008 -0.012353
outer loop
vertex -0.200000 -0.006125 -0.200000
vertex 0.152759 -0.199353 0.200000
vertex 0.006576 -0.122602 -0.200000
endloop
endfacet
endsolid Exported from Blender-3.6.9
