solid Exported from Blender-3.6.9
facet normal 1.000000 0.000000 0.000000
outer loop
vertex 1.000000 -1.000000 -1.000000
vertex 1.000000 1.000000 -1.000000
vertex 1.000000 1.000000 1.000000
endloop
endfacet
facet normal 1.000000 0.000000 0.000000
outer loop
vertex 1.000000 -1.000000 -1.000000
vertex 1.000000 1.000000 1.000000
vertex 1.000000 -1.000000 1.000000
endloop
endfacet
facet normal 0.000000 0.000000 1.000000
outer loop
vertex 1.000000 -1.000000 1.000000
vertex 1.000000 1.000000 1.000000
vertex -1.000000 1.000000 1.000000
endloop
endfacet
facet normal 0.000000 0.000000 1.000000
outer loop
vertex 1.000000 -1.000000 1.000000
vertex -1.000000 1.000000 1.000000
vertex -1.000000 -1.000000 1.000000
endloop
endfacet
facet normal -1.000000 0.000000 0.000000
outer loop
vertex -1.000000 -1.000000 1.000000
vertex -1.000000 1.000000 1.000000
vertex -1.000000 1.000000 -1.000000
endloop
endfacet
facet normal -1.000000 0.000000 0.000000
outer loop
vertex -1.000000 -1.000000 1.000000
vertex -1.000000 1.000000 -1.000000
vertex -1.000000 -1.000000 -1.000000
endloop
endfacet
facet normal 0.000000 0.000000 -1.000000
outer loop
vertex -1.000000 -1.000000 -1.000000
vertex -1.000000 1.000000 -1.000000
vertex 1.000000 1.000000 -1.000000
endloop
endfacet
facet normal 0.000000 0.000000 -1.000000
outer loop
vertex -1.000000 -1.000000 -1.000000
vertex 1.000000 1.000000 -1.000000
vertex 1.000000 -1.000000 -1.000000
endloop
endfacet
facet normal 0.000000 -1.000000 0.000000
outer loop
vertex 1.000000 -1.000000 1.000000
vertex -1.000000 -1.000000 1.000000
vertex -1.000000 -1.000000 -1.000000
endloop
endfacet
facet normal 0.000000 -1.000000 0.000000
outer loop
vertex 1.000000 -1.000000 1.000000
vertex -1.000000 -1.000000 -1.000000
vertex 1.000000 -1.000000 -1.000000
endloop
endfacet
facet normal -0.500000 0.866025 0.000000
outer loop
vertex 1.299038 0.750000 -1.500000
vertex -1.299038 -0.750000 -1.500000
vertex -1.299038 -0.750000 1.500000
endloop
endfacet
facet normal -0.500000 0.866025 0.000000
outer loop
vertex 1.299038 0.750000 -1.500000
vertex -1.299038 -0.750000 1.500000
vertex 1.299038 0.750000 1.500000
endloop
endfacet
endsolid Exported from Blender-3.6.9
